<?xml version="1.0" encoding="utf-8" standalone="no"?>
<!DOCTYPE svg PUBLIC "-//W3C//DTD SVG 1.1//EN"
  "http://www.w3.org/Graphics/SVG/1.1/DTD/svg11.dtd">
<svg xmlns:xlink="http://www.w3.org/1999/xlink" width="432pt" height="129.6pt" viewBox="0 0 432 129.6" xmlns="http://www.w3.org/2000/svg" version="1.1">
 <metadata>
  <rdf:RDF xmlns:dc="http://purl.org/dc/elements/1.1/" xmlns:cc="http://creativecommons.org/ns#" xmlns:rdf="http://www.w3.org/1999/02/22-rdf-syntax-ns#">
   <cc:Work>
    <dc:type rdf:resource="http://purl.org/dc/dcmitype/StillImage"/>
    <dc:date>2026-09-22T14:21:21.840069</dc:date>
    <dc:format>image/svg+xml</dc:format>
    <dc:creator>
     <cc:Agent>
      <dc:title>Matplotlib v3.7.3, https://matplotlib.org/</dc:title>
     </cc:Agent>
    </dc:creator>
   </cc:Work>
  </rdf:RDF>
 </metadata>
 <defs>
  <style type="text/css">*{stroke-linejoin: round; stroke-linecap: butt}</style>
 </defs>
 <g id="figure_1">
  <g id="patch_1">
   <path d="M 0 129.6 
L 432 129.6 
L 432 0 
L 0 0 
z
" style="fill: #ffffff"/>
  </g>
  <g id="axes_1">
   <g id="patch_2">
    <path d="M 30.569236 100.739625 
L 141.84 100.739625 
L 141.84 17.52 
L 30.569236 17.52 
z
" style="fill: #ffffff"/>
   </g>
   <g id="line2d_1">
    <path d="M 30.569236 21.30271 
L 141.84 21.30271 
" clip-path="url(#p28db8b78e0)" style="fill: none; stroke-dasharray: 3.7,1.6; stroke-dashoffset: 0; stroke: #aaaaaa"/>
   </g>
   <g id="matplotlib.axis_1">
    <g id="xtick_1">
     <g id="line2d_2">
      <defs>
       <path id="med772f3a56" d="M 0 0 
L 0 -2 
" style="stroke: #000000; stroke-width: 0.8"/>
      </defs>
      <g>
       <use xlink:href="#med772f3a56" x="54.341039" y="100.739625" style="stroke: #000000; stroke-width: 0.8"/>
      </g>
     </g>
     <g id="text_1">
      <!-- $\mathdefault{10^{-1}}$ -->
      <g transform="translate(48.401039 110.427125)">
       <text>
        <tspan style="font: 6px 'Arial'" x="0 3.336914" y="-0.7996250000000007">10</tspan>
        <tspan style="font: 4.2px 'Arial'" x="6.778369 9.231103" y="-4.98125">−1</tspan>
       </text>
      </g>
     </g>
    </g>
    <g id="xtick_2">
     <g id="line2d_3">
      <g>
       <use xlink:href="#med772f3a56" x="81.114779" y="100.739625" style="stroke: #000000; stroke-width: 0.8"/>
      </g>
     </g>
     <g id="text_2">
      <!-- $\mathdefault{10^{0}}$ -->
      <g transform="translate(76.404779 110.427125)">
       <text>
        <tspan style="font: 6px 'Arial'" x="0 3.336914" y="-0.7996250000000007">10</tspan>
        <tspan style="font: 4.2px 'Arial'" x="6.778369" y="-4.98125">0</tspan>
       </text>
      </g>
     </g>
    </g>
    <g id="xtick_3">
     <g id="line2d_4">
      <g>
       <use xlink:href="#med772f3a56" x="107.88852" y="100.739625" style="stroke: #000000; stroke-width: 0.8"/>
      </g>
     </g>
     <g id="text_3">
      <!-- $\mathdefault{10^{1}}$ -->
      <g transform="translate(103.17852 110.427125)">
       <text>
        <tspan style="font: 6px 'Arial'" x="0 3.336914" y="-0.7996250000000007">10</tspan>
        <tspan style="font: 4.2px 'Arial'" x="6.778369" y="-4.98125">1</tspan>
       </text>
      </g>
     </g>
    </g>
    <g id="xtick_4">
     <g id="line2d_5">
      <g>
       <use xlink:href="#med772f3a56" x="134.66226" y="100.739625" style="stroke: #000000; stroke-width: 0.8"/>
      </g>
     </g>
     <g id="text_4">
      <!-- $\mathdefault{10^{2}}$ -->
      <g transform="translate(129.95226 110.427125)">
       <text>
        <tspan style="font: 6px 'Arial'" x="0 3.336914" y="-0.7996250000000007">10</tspan>
        <tspan style="font: 4.2px 'Arial'" x="6.778369" y="-4.98125">2</tspan>
       </text>
      </g>
     </g>
    </g>
    <g id="text_5">
     <text style="font: 6px 'Arial'; text-anchor: middle" x="86.204618" y="119.987437" transform="rotate(-0 86.204618 119.987437)">time between frames [s]</text>
    </g>
   </g>
   <g id="matplotlib.axis_2">
    <g id="ytick_1">
     <g id="line2d_6">
      <defs>
       <path id="m0df9d80a8b" d="M 0 0 
L 2 0 
" style="stroke: #000000; stroke-width: 0.8"/>
      </defs>
      <g>
       <use xlink:href="#m0df9d80a8b" x="30.569236" y="85.572493" style="stroke: #000000; stroke-width: 0.8"/>
      </g>
     </g>
     <g id="text_6">
      <!-- $\mathdefault{10^{-1}}$ -->
      <g transform="translate(15.189236 88.666243)">
       <text>
        <tspan style="font: 6px 'Arial'" x="0 3.336914" y="-0.7996250000000007">10</tspan>
        <tspan style="font: 4.2px 'Arial'" x="6.778369 9.231103" y="-4.98125">−1</tspan>
       </text>
      </g>
     </g>
    </g>
    <g id="ytick_2">
     <g id="line2d_7">
      <g>
       <use xlink:href="#m0df9d80a8b" x="30.569236" y="69.285069" style="stroke: #000000; stroke-width: 0.8"/>
      </g>
     </g>
     <g id="text_7">
      <!-- $\mathdefault{10^{0}}$ -->
      <g transform="translate(17.649236 72.378819)">
       <text>
        <tspan style="font: 6px 'Arial'" x="0 3.336914" y="-0.7996250000000007">10</tspan>
        <tspan style="font: 4.2px 'Arial'" x="6.778369" y="-4.98125">0</tspan>
       </text>
      </g>
     </g>
    </g>
    <g id="ytick_3">
     <g id="line2d_8">
      <g>
       <use xlink:href="#m0df9d80a8b" x="30.569236" y="52.997644" style="stroke: #000000; stroke-width: 0.8"/>
      </g>
     </g>
     <g id="text_8">
      <!-- $\mathdefault{10^{1}}$ -->
      <g transform="translate(17.649236 56.091394)">
       <text>
        <tspan style="font: 6px 'Arial'" x="0 3.336914" y="-0.7996250000000007">10</tspan>
        <tspan style="font: 4.2px 'Arial'" x="6.778369" y="-4.98125">1</tspan>
       </text>
      </g>
     </g>
    </g>
    <g id="ytick_4">
     <g id="line2d_9">
      <g>
       <use xlink:href="#m0df9d80a8b" x="30.569236" y="36.710219" style="stroke: #000000; stroke-width: 0.8"/>
      </g>
     </g>
     <g id="text_9">
      <!-- $\mathdefault{10^{2}}$ -->
      <g transform="translate(17.649236 39.803969)">
       <text>
        <tspan style="font: 6px 'Arial'" x="0 3.336914" y="-0.7996250000000007">10</tspan>
        <tspan style="font: 4.2px 'Arial'" x="6.778369" y="-4.98125">2</tspan>
       </text>
      </g>
     </g>
    </g>
    <g id="ytick_5">
     <g id="line2d_10">
      <g>
       <use xlink:href="#m0df9d80a8b" x="30.569236" y="20.422794" style="stroke: #000000; stroke-width: 0.8"/>
      </g>
     </g>
     <g id="text_10">
      <!-- $\mathdefault{10^{3}}$ -->
      <g transform="translate(17.649236 23.516544)">
       <text>
        <tspan style="font: 6px 'Arial'" x="0 3.336914" y="-0.7996250000000007">10</tspan>
        <tspan style="font: 4.2px 'Arial'" x="6.778369" y="-4.98125">3</tspan>
       </text>
      </g>
     </g>
    </g>
    <g id="text_11">
     <text style="font: 6px 'Arial'; text-anchor: middle" x="9.996736" y="59.129812" transform="rotate(-90 9.996736 59.129812)">mean lifetime inferred</text>
    </g>
   </g>
   <g id="line2d_11">
    <path d="M 35.626998 75.687484 
L 43.686697 69.180376 
L 54.341039 65.729026 
L 62.400738 61.005708 
L 73.055081 54.728752 
L 81.114779 50.138446 
L 89.174478 45.421477 
L 99.828821 39.018192 
L 107.88852 35.059209 
L 120.66284 28.668783 
L 128.722539 25.973868 
L 136.782238 23.555767 
" clip-path="url(#p28db8b78e0)" style="fill: none; stroke: #cf2600; stroke-width: 1.5; stroke-linecap: square"/>
    <defs>
     <path id="m500509c5cb" d="M 0 1 
C 0.265203 1 0.51958 0.894634 0.707107 0.707107 
C 0.894634 0.51958 1 0.265203 1 0 
C 1 -0.265203 0.894634 -0.51958 0.707107 -0.707107 
C 0.51958 -0.894634 0.265203 -1 0 -1 
C -0.265203 -1 -0.51958 -0.894634 -0.707107 -0.707107 
C -0.894634 -0.51958 -1 -0.265203 -1 0 
C -1 0.265203 -0.894634 0.51958 -0.707107 0.707107 
C -0.51958 0.894634 -0.265203 1 0 1 
z
" style="stroke: #cf2600"/>
    </defs>
    <g clip-path="url(#p28db8b78e0)">
     <use xlink:href="#m500509c5cb" x="35.626998" y="75.687484" style="fill: #cf2600; stroke: #cf2600"/>
     <use xlink:href="#m500509c5cb" x="43.686697" y="69.180376" style="fill: #cf2600; stroke: #cf2600"/>
     <use xlink:href="#m500509c5cb" x="54.341039" y="65.729026" style="fill: #cf2600; stroke: #cf2600"/>
     <use xlink:href="#m500509c5cb" x="62.400738" y="61.005708" style="fill: #cf2600; stroke: #cf2600"/>
     <use xlink:href="#m500509c5cb" x="73.055081" y="54.728752" style="fill: #cf2600; stroke: #cf2600"/>
     <use xlink:href="#m500509c5cb" x="81.114779" y="50.138446" style="fill: #cf2600; stroke: #cf2600"/>
     <use xlink:href="#m500509c5cb" x="89.174478" y="45.421477" style="fill: #cf2600; stroke: #cf2600"/>
     <use xlink:href="#m500509c5cb" x="99.828821" y="39.018192" style="fill: #cf2600; stroke: #cf2600"/>
     <use xlink:href="#m500509c5cb" x="107.88852" y="35.059209" style="fill: #cf2600; stroke: #cf2600"/>
     <use xlink:href="#m500509c5cb" x="120.66284" y="28.668783" style="fill: #cf2600; stroke: #cf2600"/>
     <use xlink:href="#m500509c5cb" x="128.722539" y="25.973868" style="fill: #cf2600; stroke: #cf2600"/>
     <use xlink:href="#m500509c5cb" x="136.782238" y="23.555767" style="fill: #cf2600; stroke: #cf2600"/>
    </g>
   </g>
   <g id="line2d_12">
    <path d="M 35.626998 87.14379 
L 43.686697 81.102531 
L 54.341039 75.953344 
L 62.400738 71.093791 
L 73.055081 64.725508 
L 81.114779 59.796209 
L 89.174478 54.93403 
L 99.828821 48.406798 
L 107.88852 43.573137 
L 120.66284 36.270822 
L 128.722539 32.000126 
L 136.782238 28.16415 
" clip-path="url(#p28db8b78e0)" style="fill: none; stroke: #ab5d3e; stroke-width: 1.5; stroke-linecap: square"/>
    <defs>
     <path id="m70011336fe" d="M 0 1 
C 0.265203 1 0.51958 0.894634 0.707107 0.707107 
C 0.894634 0.51958 1 0.265203 1 0 
C 1 -0.265203 0.894634 -0.51958 0.707107 -0.707107 
C 0.51958 -0.894634 0.265203 -1 0 -1 
C -0.265203 -1 -0.51958 -0.894634 -0.707107 -0.707107 
C -0.894634 -0.51958 -1 -0.265203 -1 0 
C -1 0.265203 -0.894634 0.51958 -0.707107 0.707107 
C -0.51958 0.894634 -0.265203 1 0 1 
z
" style="stroke: #ab5d3e"/>
    </defs>
    <g clip-path="url(#p28db8b78e0)">
     <use xlink:href="#m70011336fe" x="35.626998" y="87.14379" style="fill: #ab5d3e; stroke: #ab5d3e"/>
     <use xlink:href="#m70011336fe" x="43.686697" y="81.102531" style="fill: #ab5d3e; stroke: #ab5d3e"/>
     <use xlink:href="#m70011336fe" x="54.341039" y="75.953344" style="fill: #ab5d3e; stroke: #ab5d3e"/>
     <use xlink:href="#m70011336fe" x="62.400738" y="71.093791" style="fill: #ab5d3e; stroke: #ab5d3e"/>
     <use xlink:href="#m70011336fe" x="73.055081" y="64.725508" style="fill: #ab5d3e; stroke: #ab5d3e"/>
     <use xlink:href="#m70011336fe" x="81.114779" y="59.796209" style="fill: #ab5d3e; stroke: #ab5d3e"/>
     <use xlink:href="#m70011336fe" x="89.174478" y="54.93403" style="fill: #ab5d3e; stroke: #ab5d3e"/>
     <use xlink:href="#m70011336fe" x="99.828821" y="48.406798" style="fill: #ab5d3e; stroke: #ab5d3e"/>
     <use xlink:href="#m70011336fe" x="107.88852" y="43.573137" style="fill: #ab5d3e; stroke: #ab5d3e"/>
     <use xlink:href="#m70011336fe" x="120.66284" y="36.270822" style="fill: #ab5d3e; stroke: #ab5d3e"/>
     <use xlink:href="#m70011336fe" x="128.722539" y="32.000126" style="fill: #ab5d3e; stroke: #ab5d3e"/>
     <use xlink:href="#m70011336fe" x="136.782238" y="28.16415" style="fill: #ab5d3e; stroke: #ab5d3e"/>
    </g>
   </g>
   <g id="line2d_13">
    <path d="M 35.626998 94.37261 
L 43.686697 88.395337 
L 54.341039 83.03252 
L 62.400738 78.135739 
L 73.055081 71.639334 
L 81.114779 66.811706 
L 89.174478 61.914095 
L 99.828821 55.386547 
L 107.88852 50.494944 
L 120.66284 42.459307 
L 128.722539 37.983693 
L 136.782238 32.753644 
" clip-path="url(#p28db8b78e0)" style="fill: none; stroke: #916e60; stroke-width: 1.5; stroke-linecap: square"/>
    <defs>
     <path id="mcf690396ac" d="M 0 1 
C 0.265203 1 0.51958 0.894634 0.707107 0.707107 
C 0.894634 0.51958 1 0.265203 1 0 
C 1 -0.265203 0.894634 -0.51958 0.707107 -0.707107 
C 0.51958 -0.894634 0.265203 -1 0 -1 
C -0.265203 -1 -0.51958 -0.894634 -0.707107 -0.707107 
C -0.894634 -0.51958 -1 -0.265203 -1 0 
C -1 0.265203 -0.894634 0.51958 -0.707107 0.707107 
C -0.51958 0.894634 -0.265203 1 0 1 
z
" style="stroke: #916e60"/>
    </defs>
    <g clip-path="url(#p28db8b78e0)">
     <use xlink:href="#mcf690396ac" x="35.626998" y="94.37261" style="fill: #916e60; stroke: #916e60"/>
     <use xlink:href="#mcf690396ac" x="43.686697" y="88.395337" style="fill: #916e60; stroke: #916e60"/>
     <use xlink:href="#mcf690396ac" x="54.341039" y="83.03252" style="fill: #916e60; stroke: #916e60"/>
     <use xlink:href="#mcf690396ac" x="62.400738" y="78.135739" style="fill: #916e60; stroke: #916e60"/>
     <use xlink:href="#mcf690396ac" x="73.055081" y="71.639334" style="fill: #916e60; stroke: #916e60"/>
     <use xlink:href="#mcf690396ac" x="81.114779" y="66.811706" style="fill: #916e60; stroke: #916e60"/>
     <use xlink:href="#mcf690396ac" x="89.174478" y="61.914095" style="fill: #916e60; stroke: #916e60"/>
     <use xlink:href="#mcf690396ac" x="99.828821" y="55.386547" style="fill: #916e60; stroke: #916e60"/>
     <use xlink:href="#mcf690396ac" x="107.88852" y="50.494944" style="fill: #916e60; stroke: #916e60"/>
     <use xlink:href="#mcf690396ac" x="120.66284" y="42.459307" style="fill: #916e60; stroke: #916e60"/>
     <use xlink:href="#mcf690396ac" x="128.722539" y="37.983693" style="fill: #916e60; stroke: #916e60"/>
     <use xlink:href="#mcf690396ac" x="136.782238" y="32.753644" style="fill: #916e60; stroke: #916e60"/>
    </g>
   </g>
   <g id="line2d_14">
    <path d="M 35.626998 96.758561 
L 43.686697 91.677954 
L 54.341039 85.378389 
L 62.400738 80.472726 
L 73.055081 73.982718 
L 81.114779 69.102314 
L 89.174478 64.196171 
L 99.828821 57.758082 
L 107.88852 52.873699 
L 120.66284 45.020026 
L 128.722539 40.223228 
L 136.782238 35.420561 
" clip-path="url(#p28db8b78e0)" style="fill: none; stroke: #8c8785; stroke-width: 1.5; stroke-linecap: square"/>
    <defs>
     <path id="m02e99cb740" d="M 0 1 
C 0.265203 1 0.51958 0.894634 0.707107 0.707107 
C 0.894634 0.51958 1 0.265203 1 0 
C 1 -0.265203 0.894634 -0.51958 0.707107 -0.707107 
C 0.51958 -0.894634 0.265203 -1 0 -1 
C -0.265203 -1 -0.51958 -0.894634 -0.707107 -0.707107 
C -0.894634 -0.51958 -1 -0.265203 -1 0 
C -1 0.265203 -0.894634 0.51958 -0.707107 0.707107 
C -0.51958 0.894634 -0.265203 1 0 1 
z
" style="stroke: #8c8785"/>
    </defs>
    <g clip-path="url(#p28db8b78e0)">
     <use xlink:href="#m02e99cb740" x="35.626998" y="96.758561" style="fill: #8c8785; stroke: #8c8785"/>
     <use xlink:href="#m02e99cb740" x="43.686697" y="91.677954" style="fill: #8c8785; stroke: #8c8785"/>
     <use xlink:href="#m02e99cb740" x="54.341039" y="85.378389" style="fill: #8c8785; stroke: #8c8785"/>
     <use xlink:href="#m02e99cb740" x="62.400738" y="80.472726" style="fill: #8c8785; stroke: #8c8785"/>
     <use xlink:href="#m02e99cb740" x="73.055081" y="73.982718" style="fill: #8c8785; stroke: #8c8785"/>
     <use xlink:href="#m02e99cb740" x="81.114779" y="69.102314" style="fill: #8c8785; stroke: #8c8785"/>
     <use xlink:href="#m02e99cb740" x="89.174478" y="64.196171" style="fill: #8c8785; stroke: #8c8785"/>
     <use xlink:href="#m02e99cb740" x="99.828821" y="57.758082" style="fill: #8c8785; stroke: #8c8785"/>
     <use xlink:href="#m02e99cb740" x="107.88852" y="52.873699" style="fill: #8c8785; stroke: #8c8785"/>
     <use xlink:href="#m02e99cb740" x="120.66284" y="45.020026" style="fill: #8c8785; stroke: #8c8785"/>
     <use xlink:href="#m02e99cb740" x="128.722539" y="40.223228" style="fill: #8c8785; stroke: #8c8785"/>
     <use xlink:href="#m02e99cb740" x="136.782238" y="35.420561" style="fill: #8c8785; stroke: #8c8785"/>
    </g>
   </g>
   <g id="patch_3">
    <path d="M 30.569236 100.739625 
L 30.569236 17.52 
" style="fill: none; stroke: #000000; stroke-width: 0.8; stroke-linejoin: miter; stroke-linecap: square"/>
   </g>
   <g id="patch_4">
    <path d="M 141.84 100.739625 
L 141.84 17.52 
" style="fill: none; stroke: #000000; stroke-width: 0.8; stroke-linejoin: miter; stroke-linecap: square"/>
   </g>
   <g id="patch_5">
    <path d="M 30.569236 100.739625 
L 141.84 100.739625 
" style="fill: none; stroke: #000000; stroke-width: 0.8; stroke-linejoin: miter; stroke-linecap: square"/>
   </g>
   <g id="patch_6">
    <path d="M 30.569236 17.52 
L 141.84 17.52 
" style="fill: none; stroke: #000000; stroke-width: 0.8; stroke-linejoin: miter; stroke-linecap: square"/>
   </g>
   <g id="text_12">
    <text style="font: 7.2px 'Arial'; text-anchor: middle" x="86.204618" y="11.52" transform="rotate(-0 86.204618 11.52)">loop 0</text>
   </g>
   <g id="line2d_15">
    <path d="M 35.626998 96.956915 
L 43.686697 92.053911 
L 54.341039 85.572493 
L 62.400738 80.66949 
L 73.055081 74.188072 
L 81.114779 69.285069 
L 89.174478 64.382065 
L 99.828821 57.900647 
L 107.88852 52.997644 
L 120.66284 45.226567 
L 128.722539 40.323564 
L 136.782238 35.420561 
" clip-path="url(#p28db8b78e0)" style="fill: none; stroke-dasharray: 3.7,1.6; stroke-dashoffset: 0; stroke: #000000"/>
   </g>
   <g id="line2d_16">
    <path clip-path="url(#p28db8b78e0)" style="fill: none; stroke-dasharray: 3.7,1.6; stroke-dashoffset: 0; stroke: #000000"/>
   </g>
  </g>
  <g id="axes_2">
   <g id="patch_7">
    <path d="M 172.409236 100.739625 
L 283.68 100.739625 
L 283.68 17.52 
L 172.409236 17.52 
z
" style="fill: #ffffff"/>
   </g>
   <g id="line2d_17">
    <path d="M 172.409236 21.30271 
L 283.68 21.30271 
" clip-path="url(#pe3b28985c0)" style="fill: none; stroke-dasharray: 3.7,1.6; stroke-dashoffset: 0; stroke: #aaaaaa"/>
   </g>
   <g id="matplotlib.axis_3">
    <g id="xtick_5">
     <g id="line2d_18">
      <g>
       <use xlink:href="#med772f3a56" x="196.181039" y="100.739625" style="stroke: #000000; stroke-width: 0.8"/>
      </g>
     </g>
     <g id="text_13">
      <!-- $\mathdefault{10^{-1}}$ -->
      <g transform="translate(190.241039 110.427125)">
       <text>
        <tspan style="font: 6px 'Arial'" x="0 3.336914" y="-0.7996250000000007">10</tspan>
        <tspan style="font: 4.2px 'Arial'" x="6.778369 9.231103" y="-4.98125">−1</tspan>
       </text>
      </g>
     </g>
    </g>
    <g id="xtick_6">
     <g id="line2d_19">
      <g>
       <use xlink:href="#med772f3a56" x="222.954779" y="100.739625" style="stroke: #000000; stroke-width: 0.8"/>
      </g>
     </g>
     <g id="text_14">
      <!-- $\mathdefault{10^{0}}$ -->
      <g transform="translate(218.244779 110.427125)">
       <text>
        <tspan style="font: 6px 'Arial'" x="0 3.336914" y="-0.7996250000000007">10</tspan>
        <tspan style="font: 4.2px 'Arial'" x="6.778369" y="-4.98125">0</tspan>
       </text>
      </g>
     </g>
    </g>
    <g id="xtick_7">
     <g id="line2d_20">
      <g>
       <use xlink:href="#med772f3a56" x="249.72852" y="100.739625" style="stroke: #000000; stroke-width: 0.8"/>
      </g>
     </g>
     <g id="text_15">
      <!-- $\mathdefault{10^{1}}$ -->
      <g transform="translate(245.01852 110.427125)">
       <text>
        <tspan style="font: 6px 'Arial'" x="0 3.336914" y="-0.7996250000000007">10</tspan>
        <tspan style="font: 4.2px 'Arial'" x="6.778369" y="-4.98125">1</tspan>
       </text>
      </g>
     </g>
    </g>
    <g id="xtick_8">
     <g id="line2d_21">
      <g>
       <use xlink:href="#med772f3a56" x="276.50226" y="100.739625" style="stroke: #000000; stroke-width: 0.8"/>
      </g>
     </g>
     <g id="text_16">
      <!-- $\mathdefault{10^{2}}$ -->
      <g transform="translate(271.79226 110.427125)">
       <text>
        <tspan style="font: 6px 'Arial'" x="0 3.336914" y="-0.7996250000000007">10</tspan>
        <tspan style="font: 4.2px 'Arial'" x="6.778369" y="-4.98125">2</tspan>
       </text>
      </g>
     </g>
    </g>
    <g id="text_17">
     <text style="font: 6px 'Arial'; text-anchor: middle" x="228.044618" y="119.987437" transform="rotate(-0 228.044618 119.987437)">time between frames [s]</text>
    </g>
   </g>
   <g id="matplotlib.axis_4">
    <g id="ytick_6">
     <g id="line2d_22">
      <g>
       <use xlink:href="#m0df9d80a8b" x="172.409236" y="85.541268" style="stroke: #000000; stroke-width: 0.8"/>
      </g>
     </g>
     <g id="text_18">
      <!-- $\mathdefault{10^{-1}}$ -->
      <g transform="translate(157.029236 88.635018)">
       <text>
        <tspan style="font: 6px 'Arial'" x="0 3.336914" y="-0.7996250000000007">10</tspan>
        <tspan style="font: 4.2px 'Arial'" x="6.778369 9.231103" y="-4.98125">−1</tspan>
       </text>
      </g>
     </g>
    </g>
    <g id="ytick_7">
     <g id="line2d_23">
      <g>
       <use xlink:href="#m0df9d80a8b" x="172.409236" y="69.209169" style="stroke: #000000; stroke-width: 0.8"/>
      </g>
     </g>
     <g id="text_19">
      <!-- $\mathdefault{10^{0}}$ -->
      <g transform="translate(159.489236 72.302919)">
       <text>
        <tspan style="font: 6px 'Arial'" x="0 3.336914" y="-0.7996250000000007">10</tspan>
        <tspan style="font: 4.2px 'Arial'" x="6.778369" y="-4.98125">0</tspan>
       </text>
      </g>
     </g>
    </g>
    <g id="ytick_8">
     <g id="line2d_24">
      <g>
       <use xlink:href="#m0df9d80a8b" x="172.409236" y="52.87707" style="stroke: #000000; stroke-width: 0.8"/>
      </g>
     </g>
     <g id="text_20">
      <!-- $\mathdefault{10^{1}}$ -->
      <g transform="translate(159.489236 55.97082)">
       <text>
        <tspan style="font: 6px 'Arial'" x="0 3.336914" y="-0.7996250000000007">10</tspan>
        <tspan style="font: 4.2px 'Arial'" x="6.778369" y="-4.98125">1</tspan>
       </text>
      </g>
     </g>
    </g>
    <g id="ytick_9">
     <g id="line2d_25">
      <g>
       <use xlink:href="#m0df9d80a8b" x="172.409236" y="36.544972" style="stroke: #000000; stroke-width: 0.8"/>
      </g>
     </g>
     <g id="text_21">
      <!-- $\mathdefault{10^{2}}$ -->
      <g transform="translate(159.489236 39.638722)">
       <text>
        <tspan style="font: 6px 'Arial'" x="0 3.336914" y="-0.7996250000000007">10</tspan>
        <tspan style="font: 4.2px 'Arial'" x="6.778369" y="-4.98125">2</tspan>
       </text>
      </g>
     </g>
    </g>
    <g id="ytick_10">
     <g id="line2d_26">
      <g>
       <use xlink:href="#m0df9d80a8b" x="172.409236" y="20.212873" style="stroke: #000000; stroke-width: 0.8"/>
      </g>
     </g>
     <g id="text_22">
      <!-- $\mathdefault{10^{3}}$ -->
      <g transform="translate(159.489236 23.306623)">
       <text>
        <tspan style="font: 6px 'Arial'" x="0 3.336914" y="-0.7996250000000007">10</tspan>
        <tspan style="font: 4.2px 'Arial'" x="6.778369" y="-4.98125">3</tspan>
       </text>
      </g>
     </g>
    </g>
    <g id="text_23">
     <text style="font: 6px 'Arial'; text-anchor: middle" x="151.836736" y="59.129812" transform="rotate(-90 151.836736 59.129812)">mean lifetime inferred</text>
    </g>
   </g>
   <g id="line2d_27">
    <path d="M 177.466998 79.664348 
L 185.526697 73.143099 
L 196.181039 69.684577 
L 204.240738 64.999614 
L 214.895081 58.629824 
L 222.954779 53.919335 
L 231.014478 49.15795 
L 241.668821 43.156267 
L 249.72852 38.579182 
L 262.50284 32.231958 
L 270.562539 28.454931 
L 278.622238 25.89558 
" clip-path="url(#pe3b28985c0)" style="fill: none; stroke: #cf2600; stroke-width: 1.5; stroke-linecap: square"/>
    <g clip-path="url(#pe3b28985c0)">
     <use xlink:href="#m500509c5cb" x="177.466998" y="79.664348" style="fill: #cf2600; stroke: #cf2600"/>
     <use xlink:href="#m500509c5cb" x="185.526697" y="73.143099" style="fill: #cf2600; stroke: #cf2600"/>
     <use xlink:href="#m500509c5cb" x="196.181039" y="69.684577" style="fill: #cf2600; stroke: #cf2600"/>
     <use xlink:href="#m500509c5cb" x="204.240738" y="64.999614" style="fill: #cf2600; stroke: #cf2600"/>
     <use xlink:href="#m500509c5cb" x="214.895081" y="58.629824" style="fill: #cf2600; stroke: #cf2600"/>
     <use xlink:href="#m500509c5cb" x="222.954779" y="53.919335" style="fill: #cf2600; stroke: #cf2600"/>
     <use xlink:href="#m500509c5cb" x="231.014478" y="49.15795" style="fill: #cf2600; stroke: #cf2600"/>
     <use xlink:href="#m500509c5cb" x="241.668821" y="43.156267" style="fill: #cf2600; stroke: #cf2600"/>
     <use xlink:href="#m500509c5cb" x="249.72852" y="38.579182" style="fill: #cf2600; stroke: #cf2600"/>
     <use xlink:href="#m500509c5cb" x="262.50284" y="32.231958" style="fill: #cf2600; stroke: #cf2600"/>
     <use xlink:href="#m500509c5cb" x="270.562539" y="28.454931" style="fill: #cf2600; stroke: #cf2600"/>
     <use xlink:href="#m500509c5cb" x="278.622238" y="25.89558" style="fill: #cf2600; stroke: #cf2600"/>
    </g>
   </g>
   <g id="line2d_28">
    <path d="M 177.466998 88.384654 
L 185.526697 82.114611 
L 196.181039 77.197196 
L 204.240738 72.306852 
L 214.895081 65.878217 
L 222.954779 61.027476 
L 231.014478 56.199663 
L 241.668821 49.335524 
L 249.72852 44.413145 
L 262.50284 37.348006 
L 270.562539 33.427007 
L 278.622238 28.88273 
" clip-path="url(#pe3b28985c0)" style="fill: none; stroke: #ab5d3e; stroke-width: 1.5; stroke-linecap: square"/>
    <g clip-path="url(#pe3b28985c0)">
     <use xlink:href="#m70011336fe" x="177.466998" y="88.384654" style="fill: #ab5d3e; stroke: #ab5d3e"/>
     <use xlink:href="#m70011336fe" x="185.526697" y="82.114611" style="fill: #ab5d3e; stroke: #ab5d3e"/>
     <use xlink:href="#m70011336fe" x="196.181039" y="77.197196" style="fill: #ab5d3e; stroke: #ab5d3e"/>
     <use xlink:href="#m70011336fe" x="204.240738" y="72.306852" style="fill: #ab5d3e; stroke: #ab5d3e"/>
     <use xlink:href="#m70011336fe" x="214.895081" y="65.878217" style="fill: #ab5d3e; stroke: #ab5d3e"/>
     <use xlink:href="#m70011336fe" x="222.954779" y="61.027476" style="fill: #ab5d3e; stroke: #ab5d3e"/>
     <use xlink:href="#m70011336fe" x="231.014478" y="56.199663" style="fill: #ab5d3e; stroke: #ab5d3e"/>
     <use xlink:href="#m70011336fe" x="241.668821" y="49.335524" style="fill: #ab5d3e; stroke: #ab5d3e"/>
     <use xlink:href="#m70011336fe" x="249.72852" y="44.413145" style="fill: #ab5d3e; stroke: #ab5d3e"/>
     <use xlink:href="#m70011336fe" x="262.50284" y="37.348006" style="fill: #ab5d3e; stroke: #ab5d3e"/>
     <use xlink:href="#m70011336fe" x="270.562539" y="33.427007" style="fill: #ab5d3e; stroke: #ab5d3e"/>
     <use xlink:href="#m70011336fe" x="278.622238" y="28.88273" style="fill: #ab5d3e; stroke: #ab5d3e"/>
    </g>
   </g>
   <g id="line2d_29">
    <path d="M 177.466998 94.663755 
L 185.526697 88.720513 
L 196.181039 83.316347 
L 204.240738 78.417957 
L 214.895081 71.943459 
L 222.954779 67.00415 
L 231.014478 62.146488 
L 241.668821 55.725998 
L 249.72852 50.724605 
L 262.50284 42.862108 
L 270.562539 38.195721 
L 278.622238 33.548469 
" clip-path="url(#pe3b28985c0)" style="fill: none; stroke: #916e60; stroke-width: 1.5; stroke-linecap: square"/>
    <g clip-path="url(#pe3b28985c0)">
     <use xlink:href="#mcf690396ac" x="177.466998" y="94.663755" style="fill: #916e60; stroke: #916e60"/>
     <use xlink:href="#mcf690396ac" x="185.526697" y="88.720513" style="fill: #916e60; stroke: #916e60"/>
     <use xlink:href="#mcf690396ac" x="196.181039" y="83.316347" style="fill: #916e60; stroke: #916e60"/>
     <use xlink:href="#mcf690396ac" x="204.240738" y="78.417957" style="fill: #916e60; stroke: #916e60"/>
     <use xlink:href="#mcf690396ac" x="214.895081" y="71.943459" style="fill: #916e60; stroke: #916e60"/>
     <use xlink:href="#mcf690396ac" x="222.954779" y="67.00415" style="fill: #916e60; stroke: #916e60"/>
     <use xlink:href="#mcf690396ac" x="231.014478" y="62.146488" style="fill: #916e60; stroke: #916e60"/>
     <use xlink:href="#mcf690396ac" x="241.668821" y="55.725998" style="fill: #916e60; stroke: #916e60"/>
     <use xlink:href="#mcf690396ac" x="249.72852" y="50.724605" style="fill: #916e60; stroke: #916e60"/>
     <use xlink:href="#mcf690396ac" x="262.50284" y="42.862108" style="fill: #916e60; stroke: #916e60"/>
     <use xlink:href="#mcf690396ac" x="270.562539" y="38.195721" style="fill: #916e60; stroke: #916e60"/>
     <use xlink:href="#mcf690396ac" x="278.622238" y="33.548469" style="fill: #916e60; stroke: #916e60"/>
    </g>
   </g>
   <g id="line2d_30">
    <path d="M 177.466998 96.780803 
L 185.526697 91.711781 
L 196.181039 85.369043 
L 204.240738 80.451384 
L 214.895081 73.972267 
L 222.954779 69.055816 
L 231.014478 64.162568 
L 241.668821 57.67431 
L 249.72852 52.851041 
L 262.50284 44.928784 
L 270.562539 40.168227 
L 278.622238 35.251776 
" clip-path="url(#pe3b28985c0)" style="fill: none; stroke: #8c8785; stroke-width: 1.5; stroke-linecap: square"/>
    <g clip-path="url(#pe3b28985c0)">
     <use xlink:href="#m02e99cb740" x="177.466998" y="96.780803" style="fill: #8c8785; stroke: #8c8785"/>
     <use xlink:href="#m02e99cb740" x="185.526697" y="91.711781" style="fill: #8c8785; stroke: #8c8785"/>
     <use xlink:href="#m02e99cb740" x="196.181039" y="85.369043" style="fill: #8c8785; stroke: #8c8785"/>
     <use xlink:href="#m02e99cb740" x="204.240738" y="80.451384" style="fill: #8c8785; stroke: #8c8785"/>
     <use xlink:href="#m02e99cb740" x="214.895081" y="73.972267" style="fill: #8c8785; stroke: #8c8785"/>
     <use xlink:href="#m02e99cb740" x="222.954779" y="69.055816" style="fill: #8c8785; stroke: #8c8785"/>
     <use xlink:href="#m02e99cb740" x="231.014478" y="64.162568" style="fill: #8c8785; stroke: #8c8785"/>
     <use xlink:href="#m02e99cb740" x="241.668821" y="57.67431" style="fill: #8c8785; stroke: #8c8785"/>
     <use xlink:href="#m02e99cb740" x="249.72852" y="52.851041" style="fill: #8c8785; stroke: #8c8785"/>
     <use xlink:href="#m02e99cb740" x="262.50284" y="44.928784" style="fill: #8c8785; stroke: #8c8785"/>
     <use xlink:href="#m02e99cb740" x="270.562539" y="40.168227" style="fill: #8c8785; stroke: #8c8785"/>
     <use xlink:href="#m02e99cb740" x="278.622238" y="35.251776" style="fill: #8c8785; stroke: #8c8785"/>
    </g>
   </g>
   <g id="patch_8">
    <path d="M 172.409236 100.739625 
L 172.409236 17.52 
" style="fill: none; stroke: #000000; stroke-width: 0.8; stroke-linejoin: miter; stroke-linecap: square"/>
   </g>
   <g id="patch_9">
    <path d="M 283.68 100.739625 
L 283.68 17.52 
" style="fill: none; stroke: #000000; stroke-width: 0.8; stroke-linejoin: miter; stroke-linecap: square"/>
   </g>
   <g id="patch_10">
    <path d="M 172.409236 100.739625 
L 283.68 100.739625 
" style="fill: none; stroke: #000000; stroke-width: 0.8; stroke-linejoin: miter; stroke-linecap: square"/>
   </g>
   <g id="patch_11">
    <path d="M 172.409236 17.52 
L 283.68 17.52 
" style="fill: none; stroke: #000000; stroke-width: 0.8; stroke-linejoin: miter; stroke-linecap: square"/>
   </g>
   <g id="text_24">
    <text style="font: 7.2px 'Arial'; text-anchor: middle" x="228.044618" y="11.52" transform="rotate(-0 228.044618 11.52)">loop 1</text>
   </g>
   <g id="line2d_31">
    <path d="M 177.466998 96.956915 
L 185.526697 92.040463 
L 196.181039 85.541268 
L 204.240738 80.624816 
L 214.895081 74.125621 
L 222.954779 69.209169 
L 231.014478 64.292718 
L 241.668821 57.793522 
L 249.72852 52.87707 
L 262.50284 45.084679 
L 270.562539 40.168227 
L 278.622238 35.251776 
" clip-path="url(#pe3b28985c0)" style="fill: none; stroke-dasharray: 3.7,1.6; stroke-dashoffset: 0; stroke: #000000"/>
   </g>
   <g id="line2d_32">
    <path clip-path="url(#pe3b28985c0)" style="fill: none; stroke-dasharray: 3.7,1.6; stroke-dashoffset: 0; stroke: #000000"/>
   </g>
  </g>
  <g id="axes_3">
   <g id="patch_12">
    <path d="M 314.249236 100.739625 
L 425.52 100.739625 
L 425.52 17.52 
L 314.249236 17.52 
z
" style="fill: #ffffff"/>
   </g>
   <g id="line2d_33">
    <path d="M 314.249236 21.99434 
L 425.52 21.99434 
" clip-path="url(#p35e9c8d632)" style="fill: none; stroke-dasharray: 3.7,1.6; stroke-dashoffset: 0; stroke: #aaaaaa"/>
   </g>
   <g id="matplotlib.axis_5">
    <g id="xtick_9">
     <g id="line2d_34">
      <g>
       <use xlink:href="#med772f3a56" x="338.021039" y="100.739625" style="stroke: #000000; stroke-width: 0.8"/>
      </g>
     </g>
     <g id="text_25">
      <!-- $\mathdefault{10^{-1}}$ -->
      <g transform="translate(332.081039 110.427125)">
       <text>
        <tspan style="font: 6px 'Arial'" x="0 3.336914" y="-0.7996250000000007">10</tspan>
        <tspan style="font: 4.2px 'Arial'" x="6.778369 9.231103" y="-4.98125">−1</tspan>
       </text>
      </g>
     </g>
    </g>
    <g id="xtick_10">
     <g id="line2d_35">
      <g>
       <use xlink:href="#med772f3a56" x="364.794779" y="100.739625" style="stroke: #000000; stroke-width: 0.8"/>
      </g>
     </g>
     <g id="text_26">
      <!-- $\mathdefault{10^{0}}$ -->
      <g transform="translate(360.084779 110.427125)">
       <text>
        <tspan style="font: 6px 'Arial'" x="0 3.336914" y="-0.7996250000000007">10</tspan>
        <tspan style="font: 4.2px 'Arial'" x="6.778369" y="-4.98125">0</tspan>
       </text>
      </g>
     </g>
    </g>
    <g id="xtick_11">
     <g id="line2d_36">
      <g>
       <use xlink:href="#med772f3a56" x="391.56852" y="100.739625" style="stroke: #000000; stroke-width: 0.8"/>
      </g>
     </g>
     <g id="text_27">
      <!-- $\mathdefault{10^{1}}$ -->
      <g transform="translate(386.85852 110.427125)">
       <text>
        <tspan style="font: 6px 'Arial'" x="0 3.336914" y="-0.7996250000000007">10</tspan>
        <tspan style="font: 4.2px 'Arial'" x="6.778369" y="-4.98125">1</tspan>
       </text>
      </g>
     </g>
    </g>
    <g id="xtick_12">
     <g id="line2d_37">
      <g>
       <use xlink:href="#med772f3a56" x="418.34226" y="100.739625" style="stroke: #000000; stroke-width: 0.8"/>
      </g>
     </g>
     <g id="text_28">
      <!-- $\mathdefault{10^{2}}$ -->
      <g transform="translate(413.63226 110.427125)">
       <text>
        <tspan style="font: 6px 'Arial'" x="0 3.336914" y="-0.7996250000000007">10</tspan>
        <tspan style="font: 4.2px 'Arial'" x="6.778369" y="-4.98125">2</tspan>
       </text>
      </g>
     </g>
    </g>
    <g id="text_29">
     <text style="font: 6px 'Arial'; text-anchor: middle" x="369.884618" y="119.987437" transform="rotate(-0 369.884618 119.987437)">time between frames [s]</text>
    </g>
   </g>
   <g id="matplotlib.axis_6">
    <g id="ytick_11">
     <g id="line2d_38">
      <g>
       <use xlink:href="#m0df9d80a8b" x="314.249236" y="84.904186" style="stroke: #000000; stroke-width: 0.8"/>
      </g>
     </g>
     <g id="text_30">
      <!-- $\mathdefault{10^{-1}}$ -->
      <g transform="translate(298.869236 87.997936)">
       <text>
        <tspan style="font: 6px 'Arial'" x="0 3.336914" y="-0.7996250000000007">10</tspan>
        <tspan style="font: 4.2px 'Arial'" x="6.778369 9.231103" y="-4.98125">−1</tspan>
       </text>
      </g>
     </g>
    </g>
    <g id="ytick_12">
     <g id="line2d_39">
      <g>
       <use xlink:href="#m0df9d80a8b" x="314.249236" y="67.660629" style="stroke: #000000; stroke-width: 0.8"/>
      </g>
     </g>
     <g id="text_31">
      <!-- $\mathdefault{10^{0}}$ -->
      <g transform="translate(301.329236 70.754379)">
       <text>
        <tspan style="font: 6px 'Arial'" x="0 3.336914" y="-0.7996250000000007">10</tspan>
        <tspan style="font: 4.2px 'Arial'" x="6.778369" y="-4.98125">0</tspan>
       </text>
      </g>
     </g>
    </g>
    <g id="ytick_13">
     <g id="line2d_40">
      <g>
       <use xlink:href="#m0df9d80a8b" x="314.249236" y="50.417073" style="stroke: #000000; stroke-width: 0.8"/>
      </g>
     </g>
     <g id="text_32">
      <!-- $\mathdefault{10^{1}}$ -->
      <g transform="translate(301.329236 53.510823)">
       <text>
        <tspan style="font: 6px 'Arial'" x="0 3.336914" y="-0.7996250000000007">10</tspan>
        <tspan style="font: 4.2px 'Arial'" x="6.778369" y="-4.98125">1</tspan>
       </text>
      </g>
     </g>
    </g>
    <g id="ytick_14">
     <g id="line2d_41">
      <g>
       <use xlink:href="#m0df9d80a8b" x="314.249236" y="33.173516" style="stroke: #000000; stroke-width: 0.8"/>
      </g>
     </g>
     <g id="text_33">
      <!-- $\mathdefault{10^{2}}$ -->
      <g transform="translate(301.329236 36.267266)">
       <text>
        <tspan style="font: 6px 'Arial'" x="0 3.336914" y="-0.7996250000000007">10</tspan>
        <tspan style="font: 4.2px 'Arial'" x="6.778369" y="-4.98125">2</tspan>
       </text>
      </g>
     </g>
    </g>
    <g id="text_34">
     <text style="font: 6px 'Arial'; text-anchor: middle" x="293.676736" y="59.129812" transform="rotate(-90 293.676736 59.129812)">mean lifetime inferred</text>
    </g>
   </g>
   <g id="line2d_42">
    <path d="M 319.306998 79.203962 
L 327.366697 72.662359 
L 338.021039 68.35263 
L 346.080738 63.331261 
L 356.735081 56.767297 
L 364.794779 51.658412 
L 372.854478 46.711816 
L 383.508821 40.146651 
L 391.56852 34.946085 
L 404.34284 28.230117 
L 412.402539 24.730951 
L 420.462238 21.30271 
" clip-path="url(#p35e9c8d632)" style="fill: none; stroke: #cf2600; stroke-width: 1.5; stroke-linecap: square"/>
    <g clip-path="url(#p35e9c8d632)">
     <use xlink:href="#m500509c5cb" x="319.306998" y="79.203962" style="fill: #cf2600; stroke: #cf2600"/>
     <use xlink:href="#m500509c5cb" x="327.366697" y="72.662359" style="fill: #cf2600; stroke: #cf2600"/>
     <use xlink:href="#m500509c5cb" x="338.021039" y="68.35263" style="fill: #cf2600; stroke: #cf2600"/>
     <use xlink:href="#m500509c5cb" x="346.080738" y="63.331261" style="fill: #cf2600; stroke: #cf2600"/>
     <use xlink:href="#m500509c5cb" x="356.735081" y="56.767297" style="fill: #cf2600; stroke: #cf2600"/>
     <use xlink:href="#m500509c5cb" x="364.794779" y="51.658412" style="fill: #cf2600; stroke: #cf2600"/>
     <use xlink:href="#m500509c5cb" x="372.854478" y="46.711816" style="fill: #cf2600; stroke: #cf2600"/>
     <use xlink:href="#m500509c5cb" x="383.508821" y="40.146651" style="fill: #cf2600; stroke: #cf2600"/>
     <use xlink:href="#m500509c5cb" x="391.56852" y="34.946085" style="fill: #cf2600; stroke: #cf2600"/>
     <use xlink:href="#m500509c5cb" x="404.34284" y="28.230117" style="fill: #cf2600; stroke: #cf2600"/>
     <use xlink:href="#m500509c5cb" x="412.402539" y="24.730951" style="fill: #cf2600; stroke: #cf2600"/>
     <use xlink:href="#m500509c5cb" x="420.462238" y="21.30271" style="fill: #cf2600; stroke: #cf2600"/>
    </g>
   </g>
   <g id="line2d_43">
    <path d="M 319.306998 90.680253 
L 327.366697 84.211167 
L 338.021039 78.780642 
L 346.080738 73.711739 
L 356.735081 66.72932 
L 364.794779 61.64756 
L 372.854478 56.639621 
L 383.508821 49.606991 
L 391.56852 44.566807 
L 404.34284 36.756316 
L 412.402539 31.907341 
L 420.462238 27.348515 
" clip-path="url(#p35e9c8d632)" style="fill: none; stroke: #ab5d3e; stroke-width: 1.5; stroke-linecap: square"/>
    <g clip-path="url(#p35e9c8d632)">
     <use xlink:href="#m70011336fe" x="319.306998" y="90.680253" style="fill: #ab5d3e; stroke: #ab5d3e"/>
     <use xlink:href="#m70011336fe" x="327.366697" y="84.211167" style="fill: #ab5d3e; stroke: #ab5d3e"/>
     <use xlink:href="#m70011336fe" x="338.021039" y="78.780642" style="fill: #ab5d3e; stroke: #ab5d3e"/>
     <use xlink:href="#m70011336fe" x="346.080738" y="73.711739" style="fill: #ab5d3e; stroke: #ab5d3e"/>
     <use xlink:href="#m70011336fe" x="356.735081" y="66.72932" style="fill: #ab5d3e; stroke: #ab5d3e"/>
     <use xlink:href="#m70011336fe" x="364.794779" y="61.64756" style="fill: #ab5d3e; stroke: #ab5d3e"/>
     <use xlink:href="#m70011336fe" x="372.854478" y="56.639621" style="fill: #ab5d3e; stroke: #ab5d3e"/>
     <use xlink:href="#m70011336fe" x="383.508821" y="49.606991" style="fill: #ab5d3e; stroke: #ab5d3e"/>
     <use xlink:href="#m70011336fe" x="391.56852" y="44.566807" style="fill: #ab5d3e; stroke: #ab5d3e"/>
     <use xlink:href="#m70011336fe" x="404.34284" y="36.756316" style="fill: #ab5d3e; stroke: #ab5d3e"/>
     <use xlink:href="#m70011336fe" x="412.402539" y="31.907341" style="fill: #ab5d3e; stroke: #ab5d3e"/>
     <use xlink:href="#m70011336fe" x="420.462238" y="27.348515" style="fill: #ab5d3e; stroke: #ab5d3e"/>
    </g>
   </g>
   <g id="line2d_44">
    <path d="M 319.306998 94.903643 
L 327.366697 88.688066 
L 338.021039 82.900201 
L 346.080738 77.737166 
L 356.735081 70.887942 
L 364.794779 65.696352 
L 372.854478 60.549574 
L 383.508821 53.683826 
L 391.56852 48.704422 
L 404.34284 40.518732 
L 412.402539 35.150297 
L 420.462238 30.785366 
" clip-path="url(#p35e9c8d632)" style="fill: none; stroke: #916e60; stroke-width: 1.5; stroke-linecap: square"/>
    <g clip-path="url(#p35e9c8d632)">
     <use xlink:href="#mcf690396ac" x="319.306998" y="94.903643" style="fill: #916e60; stroke: #916e60"/>
     <use xlink:href="#mcf690396ac" x="327.366697" y="88.688066" style="fill: #916e60; stroke: #916e60"/>
     <use xlink:href="#mcf690396ac" x="338.021039" y="82.900201" style="fill: #916e60; stroke: #916e60"/>
     <use xlink:href="#mcf690396ac" x="346.080738" y="77.737166" style="fill: #916e60; stroke: #916e60"/>
     <use xlink:href="#mcf690396ac" x="356.735081" y="70.887942" style="fill: #916e60; stroke: #916e60"/>
     <use xlink:href="#mcf690396ac" x="364.794779" y="65.696352" style="fill: #916e60; stroke: #916e60"/>
     <use xlink:href="#mcf690396ac" x="372.854478" y="60.549574" style="fill: #916e60; stroke: #916e60"/>
     <use xlink:href="#mcf690396ac" x="383.508821" y="53.683826" style="fill: #916e60; stroke: #916e60"/>
     <use xlink:href="#mcf690396ac" x="391.56852" y="48.704422" style="fill: #916e60; stroke: #916e60"/>
     <use xlink:href="#mcf690396ac" x="404.34284" y="40.518732" style="fill: #916e60; stroke: #916e60"/>
     <use xlink:href="#mcf690396ac" x="412.402539" y="35.150297" style="fill: #916e60; stroke: #916e60"/>
     <use xlink:href="#mcf690396ac" x="420.462238" y="30.785366" style="fill: #916e60; stroke: #916e60"/>
    </g>
   </g>
   <g id="line2d_45">
    <path d="M 319.306998 96.768734 
L 327.366697 91.406703 
L 338.021039 84.738598 
L 346.080738 79.55089 
L 356.735081 72.691158 
L 364.794779 67.508722 
L 372.854478 62.294207 
L 383.508821 55.406397 
L 391.56852 50.37366 
L 404.34284 41.922321 
L 412.402539 36.680258 
L 420.462238 31.156541 
" clip-path="url(#p35e9c8d632)" style="fill: none; stroke: #8c8785; stroke-width: 1.5; stroke-linecap: square"/>
    <g clip-path="url(#p35e9c8d632)">
     <use xlink:href="#m02e99cb740" x="319.306998" y="96.768734" style="fill: #8c8785; stroke: #8c8785"/>
     <use xlink:href="#m02e99cb740" x="327.366697" y="91.406703" style="fill: #8c8785; stroke: #8c8785"/>
     <use xlink:href="#m02e99cb740" x="338.021039" y="84.738598" style="fill: #8c8785; stroke: #8c8785"/>
     <use xlink:href="#m02e99cb740" x="346.080738" y="79.55089" style="fill: #8c8785; stroke: #8c8785"/>
     <use xlink:href="#m02e99cb740" x="356.735081" y="72.691158" style="fill: #8c8785; stroke: #8c8785"/>
     <use xlink:href="#m02e99cb740" x="364.794779" y="67.508722" style="fill: #8c8785; stroke: #8c8785"/>
     <use xlink:href="#m02e99cb740" x="372.854478" y="62.294207" style="fill: #8c8785; stroke: #8c8785"/>
     <use xlink:href="#m02e99cb740" x="383.508821" y="55.406397" style="fill: #8c8785; stroke: #8c8785"/>
     <use xlink:href="#m02e99cb740" x="391.56852" y="50.37366" style="fill: #8c8785; stroke: #8c8785"/>
     <use xlink:href="#m02e99cb740" x="404.34284" y="41.922321" style="fill: #8c8785; stroke: #8c8785"/>
     <use xlink:href="#m02e99cb740" x="412.402539" y="36.680258" style="fill: #8c8785; stroke: #8c8785"/>
     <use xlink:href="#m02e99cb740" x="420.462238" y="31.156541" style="fill: #8c8785; stroke: #8c8785"/>
    </g>
   </g>
   <g id="patch_13">
    <path d="M 314.249236 100.739625 
L 314.249236 17.52 
" style="fill: none; stroke: #000000; stroke-width: 0.8; stroke-linejoin: miter; stroke-linecap: square"/>
   </g>
   <g id="patch_14">
    <path d="M 425.52 100.739625 
L 425.52 17.52 
" style="fill: none; stroke: #000000; stroke-width: 0.8; stroke-linejoin: miter; stroke-linecap: square"/>
   </g>
   <g id="patch_15">
    <path d="M 314.249236 100.739625 
L 425.52 100.739625 
" style="fill: none; stroke: #000000; stroke-width: 0.8; stroke-linejoin: miter; stroke-linecap: square"/>
   </g>
   <g id="patch_16">
    <path d="M 314.249236 17.52 
L 425.52 17.52 
" style="fill: none; stroke: #000000; stroke-width: 0.8; stroke-linejoin: miter; stroke-linecap: square"/>
   </g>
   <g id="text_35">
    <text style="font: 7.2px 'Arial'; text-anchor: middle" x="369.884618" y="11.52" transform="rotate(-0 369.884618 11.52)">loop 2</text>
   </g>
   <g id="line2d_46">
    <path d="M 319.306998 96.956915 
L 327.366697 91.766087 
L 338.021039 84.904186 
L 346.080738 79.713358 
L 356.735081 72.851457 
L 364.794779 67.660629 
L 372.854478 62.469802 
L 383.508821 55.607901 
L 391.56852 50.417073 
L 404.34284 42.189806 
L 412.402539 36.998978 
L 420.462238 31.80815 
" clip-path="url(#p35e9c8d632)" style="fill: none; stroke-dasharray: 3.7,1.6; stroke-dashoffset: 0; stroke: #000000"/>
   </g>
   <g id="line2d_47">
    <path clip-path="url(#p35e9c8d632)" style="fill: none; stroke-dasharray: 3.7,1.6; stroke-dashoffset: 0; stroke: #000000"/>
   </g>
  </g>
 </g>
 <defs>
  <clipPath id="p28db8b78e0">
   <rect x="30.569236" y="17.52" width="111.270764" height="83.219625"/>
  </clipPath>
  <clipPath id="pe3b28985c0">
   <rect x="172.409236" y="17.52" width="111.270764" height="83.219625"/>
  </clipPath>
  <clipPath id="p35e9c8d632">
   <rect x="314.249236" y="17.52" width="111.270764" height="83.219625"/>
  </clipPath>
 </defs>
</svg>
